<mxfile host="app.diagrams.net" modified="2024-01-17T03:28:09.689Z" agent="Mozilla/5.0 (Windows NT 10.0; Win64; x64) AppleWebKit/537.36 (KHTML, like Gecko) Chrome/120.0.0.0 Safari/537.36 Edg/120.0.0.0" version="22.1.20" etag="V-IInOlqjzsLNW1b4Bmo" type="github">
  <diagram name="第 1 页" id="hp32kv5C-_O-CNnzS3-U">
    <mxGraphModel>
      <root>
        <mxCell id="0" />
        <mxCell id="1" parent="0" />
      </root>
    </mxGraphModel>
  </diagram>
</mxfile>
